<svg xmlns="http://www.w3.org/2000/svg" xmlns:xlink="http://www.w3.org/1999/xlink" version="1.1" style="" xml:space="preserve" width="64.12418304238685" height="63.73856209476247"><rect id="backgroundrect" width="100%" height="100%" x="0" y="0" fill="none" stroke="none" class="" style=""/>











<g class="currentLayer" style=""><title>Layer 1</title><g id="Guide">
	<g id="svg_1">
	</g>
	<g id="svg_2">
	</g>
	<g id="svg_3">
	</g>
	<g id="svg_4">
	</g>
	<g id="svg_5">
	</g>
	<g id="svg_6">
	</g>
	<g id="svg_7">
	</g>
	<g id="svg_8">
	</g>
	<g id="svg_9">
	</g>
	<g id="svg_10">
	</g>
	<g id="svg_11">
	</g>
	<g id="svg_12">
	</g>
	<g id="svg_13">
	</g>
	<g id="svg_14">
	</g>
	<g id="svg_15">
	</g>
	<g id="svg_16">
	</g>
	<g id="svg_17">
	</g>
	<g id="svg_18">
	</g>
	<g id="svg_19">
	</g>
	<g id="svg_20">
	</g>
	<g id="svg_21">
	</g>
	<g id="svg_22">
	</g>
	<g id="svg_23">
	</g>
	<g id="svg_24">
	</g>
	<g id="svg_25">
	</g>
	<g id="svg_26">
	</g>
	<g id="svg_27">
	</g>
	<g id="svg_28">
	</g>
	<g id="svg_29">
	</g>
	<g id="svg_30">
	</g>
	<g id="svg_31">
	</g>
	<g id="svg_32">
	</g>
	<g id="svg_33">
	</g>
	<g id="svg_34">
	</g>
	<g id="svg_35">
	</g>
	<g id="svg_36">
	</g>
</g><rect x="48" y="6" width="2" height="2" id="svg_37" class="" fill="#0bd50b" fill-opacity="1"/><rect x="48" y="10" width="2" height="2" id="svg_38" class=""/><rect x="48" y="10" width="2" height="2" class="" id="svg_47" fill="#0bd50b" fill-opacity="1"/><rect x="44" y="6" width="2" height="2" id="svg_39" class="" fill="#0bd50b" fill-opacity="1"/><rect x="6" y="51" width="2" height="2" id="svg_40" class="" fill="#0bd50b" fill-opacity="1"/><rect x="10" y="51" width="2" height="2" id="svg_41" class="" transform="translate(0,0.13071894645690918) " fill="#0bd50b" fill-opacity="1"/><rect x="6" y="47" width="2" height="2" id="svg_42" class="" fill="#0bd50b" fill-opacity="1"/><path d="M61.52287581562996,29.34640520811081 h-7 V2.3464052081108093 c0,-0.553 -0.4470000000000002,-1 -1,-1 H12.522875815629959 c-0.02100000000000001,0 -0.03900000000000002,0.011000000000000008 -0.05900000000000003,0.012000000000000005 c-0.09000000000000007,0.005000000000000003 -0.17800000000000007,0.02300000000000002 -0.263,0.05200000000000003 c-0.03100000000000002,0.011000000000000008 -0.06100000000000003,0.01900000000000001 -0.09100000000000008,0.03300000000000002 c-0.10600000000000002,0.04900000000000002 -0.20800000000000007,0.11000000000000004 -0.29400000000000015,0.1960000000000001 l-9,9 c-0.08600000000000005,0.08600000000000005 -0.14700000000000008,0.18700000000000008 -0.1960000000000001,0.29300000000000015 c-0.014000000000000005,0.03100000000000002 -0.02200000000000002,0.062000000000000034 -0.03300000000000002,0.09400000000000008 c-0.029000000000000015,0.08400000000000005 -0.046000000000000034,0.17 -0.05200000000000003,0.259 C2.5338758156299592,11.30640520811081 2.522875815629959,11.325405208110809 2.522875815629959,11.34640520811081 v45 c0,0.553 0.4470000000000002,1 1,1 h35 v3 c0,0.553 0.4470000000000002,1 1,1 h22 c0.553,0 1,-0.4470000000000002 1,-1 v-4 c0,-0.553 -0.4470000000000002,-1 -1,-1 h-1 v-2 c0,-3.191 -1.502,-6.13 -4.007,-8 C59.02087581562996,43.47640520811081 60.52287581562996,40.53740520811081 60.52287581562996,37.34640520811081 v-2 h1 c0.553,0 1,-0.4470000000000002 1,-1 v-4 C62.52287581562996,29.79340520811081 62.07587581562996,29.34640520811081 61.52287581562996,29.34640520811081 zM11.522875815629959,4.760405208110809 V10.34640520811081 H5.936875815629959 L11.522875815629959,4.760405208110809 zM4.522875815629959,55.34640520811081 V12.34640520811081 h8 c0.553,0 1,-0.4470000000000002 1,-1 V3.3464052081108093 h39 v26 h-9 c0,-8.271 -6.729,-15 -15,-15 s-15,6.729 -15,15 s6.729,15 15,15 c4.799,0 9.264,-2.356 12.052,-6.119 c0.25,2.845 1.6830000000000007,5.423 3.955,7.119 C42.02487581562996,47.21640520811081 40.52287581562996,50.15540520811081 40.52287581562996,53.34640520811081 v2 h-1 H4.522875815629959 zM39.52287581562996,35.34640520811081 h0.518 C37.822875815629956,39.58640520811081 33.36387581562996,42.34640520811081 28.52287581562996,42.34640520811081 c-7.168,0 -13,-5.832 -13,-13 s5.832,-13 13,-13 s13,5.832 13,13 h-2 c-0.553,0 -1,0.4470000000000002 -1,1 v4 C38.52287581562996,34.899405208110814 38.96987581562996,35.34640520811081 39.52287581562996,35.34640520811081 zM60.52287581562996,59.34640520811081 H40.52287581562996 v-2 h1 h4 h10 h4 h1 V59.34640520811081 zM50.52287581562996,53.62640520811081 L52.67187581562996,55.34640520811081 h-4.299 L50.52287581562996,53.62640520811081 zM58.52287581562996,37.34640520811081 c0,3.005 -1.6660000000000006,5.729 -4.347,7.111 c-0.3330000000000003,0.171 -0.542,0.515 -0.542,0.8890000000000003 s0.20900000000000007,0.7180000000000003 0.542,0.8890000000000003 C56.85687581562996,47.61740520811081 58.52287581562996,50.34140520811081 58.52287581562996,53.34640520811081 v2 h-2.648 L51.52287581562996,51.86540520811081 V50.34640520811081 h-2 v1.5190000000000001 L45.17087581562996,55.34640520811081 H42.52287581562996 v-2 c0,-3.005 1.6660000000000006,-5.729 4.347,-7.111 c0.3330000000000003,-0.171 0.542,-0.515 0.542,-0.8890000000000003 s-0.20900000000000007,-0.7180000000000003 -0.542,-0.8890000000000003 C44.188875815629956,43.07540520811081 42.52287581562996,40.35140520811081 42.52287581562996,37.34640520811081 v-2 h16 V37.34640520811081 zM60.52287581562996,33.34640520811081 h-1 H41.58687581562996 H41.52287581562996 h-1 v-2 h1.949 H60.52287581562996 V33.34640520811081 z" id="svg_43" class="" fill="#0bd50b" fill-opacity="1"/><path d="M49,43.414V45h2v-1.586l3.707-3.707c0.286-0.286,0.372-0.716,0.217-1.09C54.77,38.243,54.404,38,54,38h-8  c-0.404,0-0.77,0.243-0.924,0.617c-0.155,0.374-0.069,0.804,0.217,1.09L49,43.414z M51.586,40L50,41.586L48.414,40H51.586z" id="svg_44" class="" fill="#0bd50b" fill-opacity="1" transform="translate(0.3921568691730499,-0.13071894645690918) "/><rect x="48.86928105354309" y="47" width="2" height="2" id="svg_45" class="" fill="#0bd50b" fill-opacity="1" transform="translate(0.5228757858276367,-0.13071894645690918) "/><path d="M26.248,33.603l-3.558-3.396l-1.381,1.447l4.265,4.069C25.768,35.908,26.017,36,26.265,36c0.256,0,0.512-0.098,0.707-0.293  l9-9l-1.414-1.414L26.248,33.603z" id="svg_46" class="" fill="#0bd50b" fill-opacity="1"/></g></svg>